/* XPM */
static char *_45a4578098d45a7fe7d24a94f47b100Jsa0iBY8QMUUXeyu[] = {
/* columns rows colors chars-per-pixel */
"32 32 204 2 ",
"   c None",
".  c #663F13",
"X  c #654113",
"o  c #6C4516",
"O  c #6C4B15",
"+  c #6C4C19",
"@  c #724D17",
"#  c #714D1A",
"$  c #6C5817",
"%  c #6F531C",
"&  c #6E5A1C",
"*  c #685314",
"=  c #755516",
"-  c #7C5517",
";  c #725A16",
":  c #7D5A17",
">  c #73541B",
",  c #7B561C",
"<  c #745C1B",
"1  c #7C5B1C",
"2  c #796117",
"3  c #74611D",
"4  c #7A621D",
"5  c #7D691B",
"6  c #726116",
"7  c #765D22",
"8  c #7C5C22",
"9  c #755620",
"0  c #7D6424",
"q  c #7F6A20",
"w  c #7F6829",
"e  c #815719",
"r  c #845C1C",
"t  c #895F1D",
"y  c #84621D",
"u  c #8B631E",
"i  c #826A1D",
"p  c #8B6C1D",
"a  c #91651E",
"s  c #95691E",
"d  c #8B751C",
"f  c #855E22",
"g  c #846224",
"h  c #8C6421",
"j  c #816A24",
"k  c #8B6923",
"l  c #876628",
"z  c #846A2D",
"x  c #8C6C2C",
"c  c #88652B",
"v  c #926621",
"b  c #956C24",
"n  c #9A6D24",
"m  c #916B28",
"M  c #996D28",
"N  c #8A7323",
"B  c #8E7C26",
"V  c #87712B",
"C  c #8B732C",
"Z  c #8B7D2B",
"A  c #9C7125",
"S  c #957C21",
"D  c #96722A",
"F  c #9C742A",
"G  c #927E2A",
"H  c #867030",
"J  c #8C7433",
"K  c #957330",
"L  c #9C7634",
"P  c #957834",
"I  c #9C7C32",
"U  c #9F7D3B",
"Y  c #A26F21",
"T  c #A47426",
"R  c #A47926",
"E  c #A2752A",
"W  c #A57B2D",
"Q  c #AB7D2C",
"!  c #A8752B",
"~  c #B27E2A",
"^  c #A47D33",
"/  c #AA7E33",
"(  c #8E8028",
")  c #8D8025",
"_  c #908027",
"`  c #9D872E",
"'  c #968126",
"]  c #958930",
"[  c #9E813B",
"{  c #A38424",
"}  c #AE822C",
"|  c #A38A26",
" . c #B3832E",
".. c #AD8332",
"X. c #A4833A",
"o. c #AD863C",
"O. c #A6883E",
"+. c #AD8C3E",
"@. c #A08134",
"#. c #B38532",
"$. c #BA8633",
"%. c #B48A34",
"&. c #BC8C35",
"*. c #B28A3C",
"=. c #BB8D3A",
"-. c #BC913A",
";. c #C18D37",
":. c #C2943C",
">. c #C9963A",
",. c #C4993F",
"<. c #CB9C3E",
"1. c #C39037",
"2. c #AC8C41",
"3. c #A08544",
"4. c #B88C40",
"5. c #B38F43",
"6. c #AC914A",
"7. c #B49445",
"8. c #BB9443",
"9. c #BD9A45",
"0. c #BB9748",
"q. c #B99B4B",
"w. c #B69D56",
"e. c #BDA04F",
"r. c #BFA351",
"t. c #BFA95E",
"y. c #BEA963",
"u. c #C39642",
"i. c #C49C43",
"p. c #CD9D40",
"a. c #C49E4B",
"s. c #CAA246",
"d. c #C5A54C",
"f. c #CCA44A",
"g. c #D3A544",
"h. c #D9A847",
"j. c #D4AA4C",
"k. c #DBAE4F",
"l. c #D0A549",
"z. c #C5A654",
"x. c #C9A752",
"c. c #C4AB56",
"v. c #CDAB53",
"b. c #CDAE5A",
"n. c #C4AA5A",
"m. c #D2AD52",
"M. c #DAAF53",
"N. c #CEB157",
"B. c #CEB35C",
"V. c #D5B156",
"C. c #DCB456",
"Z. c #D3B45D",
"A. c #DBB65A",
"S. c #DBB95D",
"D. c #E1BB5D",
"F. c #C4AE68",
"G. c #CFB963",
"H. c #D3B763",
"J. c #D3BB63",
"K. c #DDBB61",
"L. c #D5BD69",
"P. c #DCBF68",
"I. c #C6B771",
"U. c #CCBA75",
"Y. c #E2BE63",
"T. c #DEC164",
"R. c #DAC56C",
"E. c #DCC96D",
"W. c #DEC773",
"Q. c #DECA72",
"!. c #D5C97C",
"~. c #D9CC7E",
"^. c #E3C367",
"/. c #E3C46A",
"(. c #E1CA6D",
"). c #E3D16F",
"_. c #E3CD73",
"`. c #E6D074",
"'. c #E4D47B",
"]. c #E6D97E",
"[. c #EADC7D",
"{. c #EAD677",
"}. c #CBC487",
"|. c #D3C983",
" X c #D1C88B",
".X c #D3CE9A",
"XX c #D1CA95",
"oX c #D7D090",
"OX c #DED695",
"+X c #E6DA83",
"@X c #EADD82",
"#X c #E8DD86",
"$X c #E9DE8A",
"%X c #E4DD98",
"&X c #EEE282",
"*X c #EFE695",
"=X c #EFE895",
"-X c #EFE99C",
";X c #DBD7A6",
":X c #ECE6A1",
">X c #F0EAA5",
",X c #EEEBB3",
"<X c #EEEBBE",
"1X c #F5F5C8",
/* pixels */
"                            ,X,X,X<X1X                          ",
"                      !.!.|.|.|. X X XXX.X;X                    ",
"                R.R.E.].+X=X=X=X-X:X>X:XOXoX}..X                ",
"              B.S.E.[.[.[.].].].@X#X+X$X*X*X%X|.}.%X            ",
"            z.Z.(.{.E.).).[.[.[.@X@X&X#X+X'.+X$X|.I.|.          ",
"          a.b./.T.T.^.`._.Q.W.E.E.R.R.Q.'.'.Q.R._.W.y.U.        ",
"        9.x.Y.S.S.^.R.T.J.R.E.(.E.W.R.L.G.G.R.W.J.H.L.w.F.      ",
"      8.i.A.V.C.^.J.B.K.^.^././././././.L.Z.c.b.H.b.c.n.6.t.    ",
"    u.7.M.x.m.C.V.N.S.D.D.D.K.D.K.K.S.Z.Z.Z.H.n.r.x.z.r.6.3.    ",
"    *.i.j.j.C.v.v.C.C.C.C.A.A.A.M.V.V.m.v.x.d.x.r.7.0.7.5.^ 3.  ",
"    =.j.s.h.m.d.k.k.k.l.j.f.l.i.i.u.i.i.a.i.u.4.q.q.O.2.2.L x   ",
"  ..:.g.g.j.d.g.h.g.s.s.s. .%. .%.%.#. ./ *.4.2.o.0.2.^ X.L c   ",
"  ^ u.,.p.s.i.g.g.<.i.s.s.{ } } Q ......W A / / ^ ^ 2.M L L f 8 ",
"  / p.:.s.9.<.p.<.<.<.:.,.Q R Q } ..Q F n n b W E m O.K m x 8 9 ",
"/ / :.1.<.9.1.>.<.>.>.&.-.T T T T #.W u a f f M b v L P f c 9 # ",
"! / :.=.u.8.1.1.1.&.%.-.-.A n A M D A b t e a b v f m P f f 9 o ",
"E ! :.=.8.-.$.;.&.&.#.%.#.n s M D M b m h e u v t t h K 9 8 # . ",
"M ! =.#.-.+.$.$.$.$.....#.s t a u a h y h b u y f , g J # 8 # . ",
"  T ..Q %.*.Q  .~ ~ Q Q / t u t t u e e e r f r e , c z # 9 o . ",
"  n Q W Q +.E Q Q E ! W ^ t r e e n , , , @ r 1 , > x 8 # % o . ",
"  a T W ! ..[ T T T T E F 1 r e - s y = 1 > + 1 > , J % 9 + + X ",
"  t Y E b T O.A T n A D F r y 1 e u u , , > + 1 > z z + % o #   ",
"    s n k b W [ v n b b D A b b k y t g g y 8 = 0 J % > > @ o   ",
"    r s D h p @.P u s p u u u y y y r r , < = 8 H 8 & 9 + :     ",
"      a a k y k ` J r y u y y y y y 4 4 < 9 0 J w % < & , =     ",
"      = A u y , u D J 0 1 y y y 4 4 1 9 0 z J j < 7 < = :       ",
"        2 F i 1 < : k C C z 0 j 0 g w V J z 0 < < < < y *       ",
"          y { i 4 1 < < i V V V C C V j 3 < < 3 < 1 u ;         ",
"            4 | N 4 < < < < ; 3 3 3 < 3 & 3 3 ; i y ;           ",
"              & G ` j 3 ; 4 4 4 0 4 5 4 3 3 i d 2               ",
"                  q Z ] _ B d 5 4 p S S S { 5 6                 ",
"                        B ( ) ) | ' ' { d                       "
};
