/* XPM */
static char *fb429fef1e1642b28f1f8709b98e533bKiGprW71LGNYse5e[] = {
/* columns rows colors chars-per-pixel */
"64 64 248 2 ",
"   c None",
".  c #5C390C",
"X  c #503C13",
"o  c #633D0C",
"O  c #663E13",
"+  c #5A4514",
"@  c #594E10",
"#  c #6C420D",
"$  c #64470D",
"%  c #73470F",
"&  c #644415",
"*  c #6B4413",
"=  c #654B15",
"-  c #6B4A16",
";  c #644618",
":  c #664B1A",
">  c #6C4B1A",
",  c #6B4719",
"<  c #724612",
"1  c #744B14",
"2  c #7A4D12",
"3  c #734E1A",
"4  c #635413",
"5  c #6B5415",
"6  c #6D5C16",
"7  c #6D531B",
"8  c #6E5B19",
"9  c #645C17",
"0  c #725316",
"q  c #7D5315",
"w  c #735B16",
"e  c #74541B",
"r  c #7A551C",
"t  c #745B1B",
"y  c #7B5B1C",
"u  c #795F17",
"i  c #74611A",
"p  c #7B621B",
"a  c #7C691C",
"s  c #776316",
"d  c #6D6419",
"f  c #755C22",
"g  c #7A5C23",
"h  c #745622",
"j  c #6D5121",
"k  c #7B6322",
"l  c #7B6526",
"z  c #796330",
"x  c #835C1D",
"c  c #8A5E1D",
"v  c #865715",
"b  c #915E18",
"n  c #85621D",
"m  c #8B641E",
"M  c #836B1D",
"N  c #8C6A1E",
"B  c #936316",
"V  c #93651D",
"C  c #93691E",
"Z  c #9B6C1C",
"A  c #996719",
"S  c #89721C",
"D  c #96781E",
"F  c #A3711E",
"G  c #A06D1C",
"H  c #845E21",
"J  c #895F20",
"K  c #905F20",
"L  c #836324",
"P  c #8C6422",
"I  c #846C22",
"U  c #8D6B25",
"Y  c #846629",
"T  c #83692C",
"R  c #8C6C2C",
"E  c #8A662A",
"W  c #916622",
"Q  c #956B23",
"!  c #9A6D23",
"~  c #946D2B",
"^  c #986D29",
"/  c #8A7327",
"(  c #947125",
")  c #9D7225",
"_  c #94712C",
"`  c #9C742B",
"'  c #9C792E",
"]  c #967C26",
"[  c #836D32",
"{  c #8B6E32",
"}  c #8B7435",
"|  c #8B7636",
" . c #937533",
".. c #9B7531",
"X. c #937C34",
"o. c #9B7B34",
"O. c #947B39",
"+. c #9D7E3A",
"@. c #916E31",
"#. c #A16E23",
"$. c #A47425",
"%. c #A2752B",
"&. c #A47A2D",
"*. c #AB7C2B",
"=. c #A97A26",
"-. c #B17E2B",
";. c #A47C32",
":. c #A97D32",
">. c #A67E3A",
",. c #B07F30",
"<. c #8C7D47",
"1. c #968328",
"2. c #9C8234",
"3. c #9C823B",
"4. c #9B8836",
"5. c #8F862F",
"6. c #AD822D",
"7. c #A88726",
"8. c #B2822E",
"9. c #B08D26",
"0. c #B79629",
"q. c #AC8333",
"w. c #A4833B",
"e. c #AC843B",
"r. c #AA8A3C",
"t. c #A38537",
"y. c #B38532",
"u. c #B98533",
"i. c #B48A35",
"p. c #BC8B35",
"a. c #B48B3B",
"s. c #BA8D39",
"d. c #B0873D",
"f. c #A99939",
"g. c #BC933C",
"h. c #B99438",
"j. c #AE912D",
"k. c #B7A337",
"l. c #ABA035",
"z. c #C18E36",
"x. c #C18E39",
"c. c #C5933B",
"v. c #C9963B",
"b. c #CB9A3D",
"n. c #C4983D",
"m. c #CEA62B",
"M. c #958851",
"N. c #AB8D42",
"B. c #A48B45",
"V. c #B38D41",
"C. c #BA8D40",
"Z. c #AC9245",
"A. c #B39345",
"S. c #BB9443",
"D. c #B59B4B",
"F. c #BB9B4A",
"G. c #B99847",
"H. c #A99757",
"J. c #BB9D54",
"K. c #BBA44A",
"L. c #BEA452",
"P. c #BBA75B",
"I. c #ADA645",
"U. c #AB9E62",
"Y. c #ACA36B",
"T. c #B8A965",
"R. c #BBB275",
"E. c #B7AE75",
"W. c #9E9360",
"Q. c #C49C42",
"!. c #CC9E41",
"~. c #C49D49",
"^. c #C59B47",
"/. c #D09F44",
"(. c #CBA245",
"). c #C3A24C",
"_. c #CBA44B",
"`. c #CAA74C",
"'. c #D3A343",
"]. c #D4AB4D",
"[. c #DAAB4C",
"{. c #D6A747",
"}. c #C3A653",
"|. c #C4AA53",
" X c #CCAB53",
".X c #CBAE5A",
"XX c #C8A854",
"oX c #D3AD52",
"OX c #D9AE52",
"+X c #D4AF59",
"@X c #CCB35C",
"#X c #CAB45D",
"$X c #DCB355",
"%X c #D4B35B",
"&X c #DBB65B",
"*X c #DDB95B",
"=X c #D4B759",
"-X c #E2BC5D",
";X c #E1B455",
":X c #CCB764",
">X c #D3BB64",
",X c #DCBC62",
"<X c #D1B662",
"1X c #C7BA72",
"2X c #E1BE63",
"3X c #DCC164",
"4X c #DBC46C",
"5X c #DDCA6C",
"6X c #D7C369",
"7X c #DDCA72",
"8X c #DAC675",
"9X c #DFD079",
"0X c #E3C265",
"qX c #E3C469",
"wX c #E4CB6E",
"eX c #EBC768",
"rX c #E4CC74",
"tX c #E2CD79",
"yX c #E7CC71",
"uX c #E4D275",
"iX c #E4D37C",
"pX c #EADC7C",
"aX c #E9D679",
"sX c #F0DA77",
"dX c #CDC48A",
"fX c #D9D295",
"gX c #E6DA84",
"hX c #EADD83",
"jX c #E6D987",
"kX c #E8DA93",
"lX c #EDE184",
"zX c #EDE38B",
"xX c #F2E78A",
"cX c #ECE594",
"vX c #EDE69A",
"bX c #EFE899",
"nX c #F2EC9B",
"mX c #F2E894",
"MX c #F7F19B",
"NX c #E6DEA6",
"BX c #EDE8A7",
"VX c #F2ECA3",
"CX c #F3EEAB",
"ZX c #F8F2AC",
"AX c #F8F5BB",
"SX c #F1EDB6",
"DX c #F8F6C7",
"FX c #F2F0C8",
/* pixels */
"                                                                FXSX                                                            ",
"                                                  VXZXZXCXCXZXBXBXSXSXSXDXDXDXDX                                                ",
"                                          jXmXnXnXjX8XE.T.U.U.U.U.Y.H.Y.Y.E.dXNXDXDXDX                                          ",
"                                      pXxXxX8XP.H.T.1X8XfXcXbXCXBXCXBXBXfXdXdXY.W.Y.fXSXDXDX                                    ",
"                                  wXpXiX|.I.P.9XzXnXMXMXbXbXbXnXvXVXVXCXSXZXZXZXBXdXY.W.E.BXAXSX                                ",
"                              %XaXuXK.D.1XlXxXxXzXzXxXxXbXcXbXcXbXbXbXvXVXVXVXBXBXZXCXcXR.M.Y.BXAXFX                            ",
"                            3XpXL.Z.6XpXlXlXpXxXlXpXlXuXpXuXuXpXgX5XlXiXlXiXcXkXvXvXvXnXVXvXR.M.R.ZXAX                          ",
"                        ~.qX,Xr.K.sXpXsXpXpXpXuX5XuXuX5X5XpX5XgXlXuXgXgXiX7XiXiX9XjXgXcXcXbXnXjXH.M.zXCX                        ",
"                      _.eX}.>.>XsXaXaXsX5X5X5X5X=XaXaXlXhXlXzXzXzXzXlXzXzXzXgXgXgX5X6X9XgXjXcXkXmX1X<.1XVXBX                    ",
"                    _.eXZ.N.qXyXyXyXyX3X=X=XuXuXpXpXpXpXpXpXpXaXiXpXpXlXhXlXlXlXgXhXhX7X7X=XiXgXkXkX2X<.J.mXBX                  ",
"                  _.eXB.Z.eXeXyXqX3X3X3XwXuXsXaXaXuX7XuX7X7X7X7X6X6X6X7X7XrXuXiXaXhXgXgXtX7X>X4XrXtXkXtX<.H.kXkX                ",
"                ~.eX>.N.eXqXqX2X`.&X3XwXwXuXeXwX5X5X6X6X>X>X>X>X:X6X6X#X:X:X>X>X4X7XrXiXtXgX8X>XXX8X2XtXtX<.B.jX                ",
"              g.-Xw.r.eX2X2X2X%X=X&XqX0XqXqX5X>X>X#X>X6X4XrXrXuX9X9XtXrX7X6X>X@X#X@X>X,X7XtXtX8X,XXX@X4X>X8X<.H.tX              ",
"              $Xg.3.-X-X2X_.+X*XqXqX0X0X6X>X@X@X>X5XwXwXyXwXwXwXwXwXrXyXrXtXtX8X>X#XP..X<X>XqX,X4X<X.X}.>X>X<X[ J.8X            ",
"            _.).R *X*X*X=X`._.2X0X2X,X>X@X@X=X5XqXqXqXqXqXqXqXqXqXqXqXqXqX5X2XqX7X4X>X.XJ.|..X>X>X>X<X}.L..X:X}.z .X:X          ",
"          s.;XR _.-X$X&XoX&X-X*X*X=X>X`.@X,X0X0X0X0X0X0XqX2X2X2X3X3X,X,X,X,X,X,X,X,X,X8X:XK.L.}.+X<X@X.XF.L.XX:XB.z :X          ",
"          ].>.N.;X;XoXh.].$X*X$X=X@X|.$X*X-X-X*X-X2X2X2X,X2X,X,X,X,X,X,X,X,X,X<X,X%X<X+X,X>XL.D.J.}..X.X.X}.J.}.}.[ <..X        ",
"        Q./.E OX$XoX]. X].$X$X X|.`.=X*X*X*X*X*X&X*X&X*X*X&X&X&X&X&X<X$X+X$X+X+X+X+X+X.XXX.X>X|.F.F.).).}.}.Z.A.J.A.h }.        ",
"        {.@.C.$X].oX].OX;X;X+X|.|.$X$X$X$X$X$X*X&X&X&X$X$X$X&X$XOX+XOX+X+XoXoXoX XXX X XXX}.}.%X}.D.A.F.G.F.F.A.V.G.{ { J.      ",
"      x.^.E [.OX(.i.{.;X$X=X|.).oX$X$X$X$X$X$X$X$X$X$X$XOX$X+XOXOXOXoXoXoX X_. X}._._.~.~.^.F.~..XL.Z.N.S.A.G.D.N.V.>.j N.      ",
"      /...d.[.{.`.(.{.[.$X).`.`.OX[.OXOX[.[.[.[.].[.OX$X].].].oX].]._. X X`._._./.^.~.G.G.^.S.A.G..XD.r.r.V.d.D.B.>.V.g E B.    ",
"      (.Y {.[.].(.{.{.[. XK.`.[.[.[.[.[.[.(.0.`.(.(.g.i.(.h.y.y.6.q.6.8.6.q.s.g.^.^.^.S.C.C.C.C.V.A.P.Z.w.e.e.V.Z.>.>...j >.    ",
"    v.e.' {.{.(.(.{.{.].).).{.{.{.[.{.{.(.(.).(.`. Xi.F (.D 6.g.g.h.h.g.a.j.=.) ) i.x.C.C.C.V.C.d.d.G.J.w.o.>.>.N.....;.j @. .  ",
"    b.E c.{.b.n.'.{.{.(.K.Q.'.'.'.{.'.{.`.`._.(.(.(.i.F n.F h.n.h.i.y.i.i.a.g.g.q.W %.V.C.V.>.,.>.:.>.~.Z.o.` ..>.o.@...g g _   ",
"    b.k /.{.Q.y.b.'.{.).K.b.'.'.'.'.b.9.n.n.(.g.(.(.6.Z g.Z p.*.A 6.6.*.&.) Z ) a.i.m ' e.q.:.>.>.:.%.N.D.3.~ _ ..>. .~ E ; ~   ",
"  p.i.~ '.!.c.!.(.'.`.S.h.'.'.'.'.'.'.n.!.(.n.(.g.(.6.Z g.Z y.$.Z a.s.i.a.g.h.) m q.&.v ;.q.;.;.%.%...;.A.w. .~ ~ o.~ E R ; E   ",
"  x.;.;.'.!.y.p./.(.K.g.c.'./.b./.b.b.'.(.n.Q.g.g.g.7.A s.A q.y.$.` ) ) ! N ` a.W m t.v ^ ;.%.%.%.` ` ^ r.3._ P E @.~ E E , g L ",
"  s.~ y.b.Q.^.v.b.(.K.S.b.b.b.b.b.b.b.b.b.z.g.n.Q.n.8.B i.V *.g.g.g.g.g.s.q.v ) %.v &.c n %.%.` ` ^ ^ W ;.Z. .E K @.R L L > e g ",
"  s.K ^.Q.^.Q.v.b.(.G.g.c.b.v.v.b.v.v.v.b.8.6.g.g.g.&.b u.V *.$.W y.y.8.8.i.c m &.q ` x c #.! ^ ^ ^ W W ~ N.O.E H E { H H 3 , g ",
"  u.H Q.c.*.,.v.v.Q.F.a.v.c.v.v.c.v.v.c.c.n.b.h.p.g.$.b y.b &.! c *.*.&.) m q ! ^ 2 ) q x ! ^ ! K W W W W r.3.Y H L ~ Y h 3 O r ",
"  u.J c.c.^.u.x.v.~.F.y.c.c.c.c.c.z.z.z.u.p.p.h.g.g.` b :.b %.%.c V m P m ^ q.$.2 q ^ % J ^ Q W W P K K c w.B.H r H @.Y h 3 O 3 ",
"  y.E x.^.s.s.x.c.G.G.y.z.z.z.z.z.p.z.8.$.i.i.i.y.i.) v q.v ! i.q.q.q.q.q.&.P q x Q q < W V W W P P J J x +.| Y r r E E 3 3 O 3 ",
"  ,.J x.s.s.u.x.c.G.A.y.z.z.z.z.p.p.p.p.a.s.s.s.u.s.#.v &.v ! ` c c c x v x n ' >.2 # n C C W c P c J x x o.O.T r r H 3 j 3 O , ",
"  ,.J x.c.S.s.p.z.S.D.6.u.z.u.u.p.p.p.i.i.y.6.q.q.:.^ v &.v Q y.q.&.&.&.&.;.` P 1 H Q P V P P P c c x H r o. .g 3 3 H g , , O , ",
"  ,.J p.s.g.u.p.p.S.G.:.p.u.z.u.p.u.u.p.p.y.y.y.u.y.#.2 %.v Q Q q q q ' P 2 r x _ %.W V P m c c x x r r g o.O.g 3 3 Y g , , O ; ",
"  &.K u.u.q.&.u.u.S.G.*.8.u.u.u.u.u.u.8.q.P ' q.:.;.J 2 %.2 Q c 2 ' q x ) # P ;.y c V V m n J x H x x g r o.O.h , 3 h h , * O ; ",
"  %.Q *.y.;.` y.u.h.A.;.*.,.u.,.-.-.8.-.8.y.8.8.-.8.^ 2 $.2 W c q $.( # Q x # ( 1 1 P P c H H x r r r r H  . .h 3 3 g : , * < O ",
"  $.! $.8.a.i.*.8.y.D.w.*.-.-.-.-.-.-.-.=.8.&.%.%.;.n % ` < V x < ! %.q 1 _ * r Q o y n J x y x r r r r H O.{ > , 3 Y e , O 3 X ",
"  ^ G ! *.y.q.*.-.6.a.w.` *.*.*.*.=.=.$.$.*.&.6.*.*.W % ` < m x < Q ! ^ # x P o P y O H x x H r r e h 3 E { T * > e g , , O * X ",
"  K $.b *.*.R Q =.6.r.N.` $.*.=.=.&.=.P _ ' ' ` ..;.x # ` < n x % Q Q ( x $ Q 0 * U o > x H y r r r 3 r { } g > > g : & & < ,   ",
"    #.b %.&.:.%.$.=.q.A.w.^ =.$.$.$.$.*.:.*.*.&.&.&.P % ^ * n q # W C N ) * 0 U . r y . y y y y r r 3 g |  .> - 3 h 7 : & 1 +   ",
"    W A #.$.*.>.$.$.=.r.N.Q $.$.$.$.$.$.$.#.&.%.` ' y # ` ` _ q * C W m W L . L _ Y U - & u y e e 3 r @.O.Y = , h k , ; < 1 X   ",
"    n ! V ) %._ n #.) 6.Z.+.Q $.$.$.` ) ) ^ P ( ( ) x o * 1 0 O * W V P P Q 0 . * - & . . - y r e e k } O.7 = 7 j ; ; : 2 >     ",
"      Q b ) ) _ _ ) ) $.t.Z.R Q ! #.! ! Z ` U o.' ' _ ( ( U U U Q m m n n n Q Y L L L I L L e e e e { X.T : > e k 7 ; , 2 ;     ",
"      n B V Q ` E x Q ) ' r.B.L C ! ! Q ! ) ) Q Q Q Q Q Q Q Q W P m n n n c x L n n H y y y e e e T | O.7 - 7 g h - ; 2 2 +     ",
"        A V C ^ _ ~ P Q Q 2.r.3.P Q C Q Q C Q C C W W C m N m m m n n n n H n x y q y e e y e e Y | O.g - 7 f k 7 = = v :       ",
"        x A V C ) _ _ C C ( t.r. .n C W C C N N N P N m m N m n L n n n n H x x p y y y y e e l | | l 7 7 h : e > : q q +       ",
"        & C V m N Q L y m V ( t.B. .n m W P W m m N n m m P P n n n n L x x p y y g y y e y Y } } l 7 e 7 k l : = 7 b =         ",
"          e Z C n C / Y n m m ( 2.r./ p m N N m N m m n n n n n n n n H p p y y y f y y i T [ | R e 7 7 l k 7 7 7 v y +         ",
"            n Z m n Q U P n m m U 2.3.z k q n n n L m M n n L n H L y p p p y f y y e k R z X. .y 7 e l : e 7 = v n 4           ",
"            = C $.m n U H : u n x P ] 2.| k h y n n n n n n n L p p p p y p y f y g z [ } X.X.t 7 8 l k k 5 5 0 B w +           ",
"              - Z =.n y U U 5 y n n n ( 2.3.[ k f e u n n n p p n p p p t y y k z [ } | 5.T e e t k k k 7 5 w B u $             ",
"                5 $.6.p x P n y 0 n n n N ( 2.X.| z g f f h e y f y f f k l z [ } | 5.{ i e t k 7 t k 7 8 8 B n 4               ",
"                  0 7.7.u u N k k = y y y p n ( ] 2.X.X.[ [ T [ l [ [ T [ | 5.O.X./ i 8 8 h k i l 7 8 t t B n 5                 ",
"                    0 7.j.u w p Y y y e t p i u p M U ] 5.X.X.5.X.o.X.5.X._ / p t 5 w e i 9 y l i t 8 w B n 6                   ",
"                      5 7.k.n 0 i M k a 7 y 7 i i s i p u p M I I I I p w t w w t d t k k l t w t t p B n 6                     ",
"                        = 1.k.] w w u p M f 7 7 : y s i t s w w s i i p i i y t 8 : l k a d i 8 s n B n t                       ",
"                          $ N I.f.a 5 w s p p a t t y : t 8 t i 7 i y k 5 k i k l f i d 6 8 8 s B C s 8                         ",
"                            + 5 j.K.4.s 5 5 6 i a a M k a k a a 7 i l I k I l a d i 6 6 6 i S Z M 9 4                           ",
"                                4 M f.K.4.l 4 4 w i p M M M M a / a / S ( M s i d 6 i s ( D S s 9                               ",
"                                    4 M 4.I.f.5.k i w 8 6 s 6 6 6 s s a s s p a M D 7.7.S d d                                   ",
"                                      5 9 6 5.f.I.k.f.1.1.S a a a M S S 1.7.j.9.7.9.0.D @                                       ",
"                                            5 6 s S 5.j.l.k.l.j.k.k.k.0.0.m.0.D s a 1.                                          ",
"                                                    9 s s 9 9 S 7.7.d 9 6 S a                                                   "
};
