/* XPM */
static char *_ce64759c243453c9de8bc0df8d035e8SCjKQNaCGU4mdS6u[] = {
/* columns rows colors chars-per-pixel */
"16 16 201 2 ",
"   c None",
".  c #694713",
"X  c #684515",
"o  c #6D4A1A",
"O  c #735417",
"+  c #745419",
"@  c #76551B",
"#  c #77551B",
"$  c #72521C",
"%  c #76571C",
"&  c #77541E",
"*  c #76561F",
"=  c #7C561C",
"-  c #765B1C",
";  c #7A591B",
":  c #7C5F19",
">  c #7F591C",
",  c #7C5E1D",
"<  c #7E5F1C",
"1  c #77641C",
"2  c #7B6118",
"3  c #79611B",
"4  c #7B611D",
"5  c #7C651D",
"6  c #7D651F",
"7  c #755B22",
"8  c #7C5A20",
"9  c #7E5C23",
"0  c #7F5E24",
"q  c #796222",
"w  c #7C6022",
"e  c #7C6620",
"r  c #7B6224",
"t  c #7E6127",
"y  c #7F6928",
"u  c #825819",
"i  c #815A1B",
"p  c #805A1C",
"a  c #845D1D",
"s  c #845F1D",
"d  c #875E1E",
"f  c #885E1C",
"g  c #8A5F1D",
"h  c #81611D",
"j  c #86631D",
"k  c #85611F",
"l  c #86631E",
"z  c #86641D",
"x  c #89611E",
"c  c #89611F",
"v  c #88621E",
"b  c #8C621D",
"n  c #8A641F",
"m  c #8F641E",
"M  c #836E19",
"N  c #806A1D",
"B  c #80681F",
"V  c #846D1F",
"C  c #92641F",
"Z  c #93691F",
"A  c #87721F",
"S  c #8F751E",
"D  c #816622",
"F  c #836327",
"G  c #896621",
"H  c #806824",
"J  c #816824",
"K  c #806827",
"L  c #846A25",
"P  c #896924",
"I  c #806529",
"U  c #896728",
"Y  c #84692A",
"T  c #896829",
"R  c #926621",
"E  c #916921",
"W  c #956923",
"Q  c #976E22",
"!  c #906824",
"~  c #976C25",
"^  c #956E27",
"/  c #9A6B22",
"(  c #9D6E23",
")  c #996F25",
"_  c #857120",
"`  c #877624",
"'  c #847726",
"]  c #8E7520",
"[  c #8B7424",
"{  c #8F7029",
"}  c #927121",
"|  c #9C7327",
" . c #96722E",
".. c #987229",
"X. c #9C7228",
"o. c #9F7428",
"O. c #98732E",
"+. c #9B772E",
"@. c #8E6C30",
"#. c #A27224",
"$. c #A47427",
"%. c #A87A27",
"&. c #A27729",
"*. c #A3742B",
"=. c #A77B2E",
"-. c #A67C2E",
";. c #A97D2E",
":. c #AD7D2E",
">. c #AC7F2E",
",. c #B17D2B",
"<. c #A37930",
"1. c #A47D30",
"2. c #A77B34",
"3. c #A17F37",
"4. c #A87B30",
"5. c #AB7C31",
"6. c #AA802E",
"7. c #AF8131",
"8. c #AE883E",
"9. c #B18533",
"0. c #B18733",
"q. c #B08636",
"w. c #B58935",
"e. c #B88937",
"r. c #BB8A36",
"t. c #BD8934",
"y. c #BA8F37",
"u. c #BD8E3A",
"i. c #BB913D",
"p. c #BD963F",
"a. c #C0933A",
"s. c #C79539",
"d. c #C0953E",
"f. c #C1973E",
"g. c #C4953C",
"h. c #C6983D",
"j. c #AE8D41",
"k. c #B68E40",
"l. c #B79547",
"z. c #BE9541",
"x. c #BD9444",
"c. c #B19248",
"v. c #B59F5A",
"b. c #C39841",
"n. c #C49940",
"m. c #C99E42",
"M. c #CBA043",
"N. c #CBA143",
"B. c #C6A14C",
"V. c #CDA448",
"C. c #CEA84D",
"Z. c #D2A040",
"A. c #D6AA4C",
"S. c #D6AB4C",
"D. c #D8AB4A",
"F. c #C3A350",
"G. c #C2A652",
"H. c #C9AC56",
"J. c #CFAF59",
"K. c #D3B257",
"L. c #D7B154",
"P. c #DDB151",
"I. c #D4B25B",
"U. c #DBB65A",
"Y. c #D9B65D",
"T. c #DDB95E",
"R. c #E0BB5E",
"E. c #D5BA65",
"W. c #D4BD67",
"Q. c #DEBE61",
"!. c #D8BD66",
"~. c #DABF66",
"^. c #D7BE68",
"/. c #CBBB78",
"(. c #E0BB60",
"). c #D5C066",
"_. c #DCC369",
"`. c #DDC36B",
"'. c #E5C160",
"]. c #E0C66C",
"[. c #E0C66D",
"{. c #E0D177",
"}. c #E6D475",
"|. c #E4D577",
" X c #EFD371",
".X c #E9D473",
"XX c #E4D579",
"oX c #E5D77D",
"OX c #DDD28B",
"+X c #D9D293",
"@X c #E3D281",
"#X c #E7D980",
"$X c #E4DA86",
"%X c #EBDC84",
"&X c #EADE84",
"*X c #E6DE8E",
"=X c #E6DD93",
"-X c #E0D99A",
";X c #E8E09A",
":X c #DFDAA4",
">X c #DFDBAC",
/* pixels */
"            OX-X:X>X            ",
"        W.{.&X$X*X=X;X+X        ",
"      J. X.X|.|.XXoX#X&X@X/.    ",
"    B.'.Q.~._.].].`.^.W.~.E.v.  ",
"  k.P.L.K.U.R.(.T.Y.I.H.G.F.c.  ",
"  d.D.C.S.S.V.n.d.p.z.x.l.j.8.@.",
"4.h.M.M.Z.m.y.%.9.6.| <.2.3.O.F ",
"5.u.b.g.s.a.9.( ;.&.f R R  .U & ",
"*.r.i.r.t.w.-.C ~ P c c f T 9 o ",
"/ >.q.7.,.>.| u g u > a = F % X ",
"  $.-.1.#.&.^ > b s # # 8 t $ X ",
"  b ) +...Z Z n c k ; % I 7 # X ",
"    Q G  .P k z h , w Y t - O   ",
"    z } 2 J J J H K K q 3 2     ",
"      L [ 6 3 5 e e 1 N 2       ",
"          ' [ _ A ] S M         "
};
